<svg xmlns="http://www.w3.org/2000/svg" xmlns:xlink="http://www.w3.org/1999/xlink" viewBox="0 0 400 240"><defs><style>.cls-1{fill:#36485e;}.cls-2{fill:none;}.cls-3{fill:url(#linear-gradient);}.cls-4{fill:url(#linear-gradient-2);}.cls-5{fill:url(#linear-gradient-3);}.cls-6{fill:url(#linear-gradient-4);}.cls-7{fill:url(#linear-gradient-5);}.cls-8{fill:url(#linear-gradient-6);}.cls-9{fill:url(#linear-gradient-7);}.cls-10{fill:#fff;}</style><linearGradient id="linear-gradient" x1="311.93" y1="279.11" x2="432.07" y2="-169.28" gradientUnits="userSpaceOnUse"><stop offset="0" stop-color="#fff" stop-opacity="0"/><stop offset="0.01" stop-color="#f3f8ec" stop-opacity="0.11"/><stop offset="0.02" stop-color="#dcebc9" stop-opacity="0.32"/><stop offset="0.03" stop-color="#c8dfa9" stop-opacity="0.5"/><stop offset="0.05" stop-color="#b7d58f" stop-opacity="0.66"/><stop offset="0.06" stop-color="#a9cd79" stop-opacity="0.78"/><stop offset="0.08" stop-color="#9ec768" stop-opacity="0.88"/><stop offset="0.1" stop-color="#97c25d" stop-opacity="0.95"/><stop offset="0.13" stop-color="#92c056" stop-opacity="0.99"/><stop offset="0.18" stop-color="#91bf54"/><stop offset="0.48" stop-color="#5ba845"/><stop offset="0.69" stop-color="#5da947" stop-opacity="0.99"/><stop offset="0.77" stop-color="#63ac4f" stop-opacity="0.95"/><stop offset="0.82" stop-color="#6fb35c" stop-opacity="0.88"/><stop offset="0.86" stop-color="#80bb6e" stop-opacity="0.78"/><stop offset="0.9" stop-color="#95c787" stop-opacity="0.65"/><stop offset="0.93" stop-color="#b0d5a5" stop-opacity="0.48"/><stop offset="0.96" stop-color="#cfe6c9" stop-opacity="0.29"/><stop offset="0.99" stop-color="#f3f8f1" stop-opacity="0.08"/><stop offset="1" stop-color="#fff" stop-opacity="0"/></linearGradient><linearGradient id="linear-gradient-2" x1="252.93" y1="-207.08" x2="252.93" y2="271.67" gradientUnits="userSpaceOnUse"><stop offset="0" stop-color="#fff" stop-opacity="0"/><stop offset="0.01" stop-color="#fff4dd" stop-opacity="0.15"/><stop offset="0.03" stop-color="#fee7b3" stop-opacity="0.32"/><stop offset="0.05" stop-color="#fedb8e" stop-opacity="0.48"/><stop offset="0.08" stop-color="#fed16d" stop-opacity="0.62"/><stop offset="0.1" stop-color="#fec851" stop-opacity="0.74"/><stop offset="0.13" stop-color="#fdc13b" stop-opacity="0.84"/><stop offset="0.16" stop-color="#fdbc2a" stop-opacity="0.91"/><stop offset="0.2" stop-color="#fdb81e" stop-opacity="0.96"/><stop offset="0.24" stop-color="#fdb617" stop-opacity="0.99"/><stop offset="0.34" stop-color="#fdb515"/><stop offset="0.49" stop-color="#fdb618"/><stop offset="0.59" stop-color="#fdba21"/><stop offset="0.68" stop-color="#fec030"/><stop offset="0.76" stop-color="#fec945"/><stop offset="0.83" stop-color="#ffd460"/><stop offset="0.84" stop-color="#ffd563"/><stop offset="0.85" stop-color="#ffd769" stop-opacity="0.96"/><stop offset="0.87" stop-color="#ffdb78" stop-opacity="0.86"/><stop offset="0.9" stop-color="#ffe292" stop-opacity="0.7"/><stop offset="0.94" stop-color="#ffebb5" stop-opacity="0.48"/><stop offset="0.98" stop-color="#fff7e1" stop-opacity="0.19"/><stop offset="1" stop-color="#fff" stop-opacity="0"/></linearGradient><linearGradient id="linear-gradient-3" x1="252.54" y1="263.2" x2="372.69" y2="-185.19" gradientUnits="userSpaceOnUse"><stop offset="0" stop-color="#fff" stop-opacity="0"/><stop offset="0.01" stop-color="#f3f8ec" stop-opacity="0.11"/><stop offset="0.02" stop-color="#dcebc9" stop-opacity="0.32"/><stop offset="0.03" stop-color="#c8dfa9" stop-opacity="0.5"/><stop offset="0.05" stop-color="#b7d58f" stop-opacity="0.66"/><stop offset="0.06" stop-color="#a9cd79" stop-opacity="0.78"/><stop offset="0.08" stop-color="#9ec768" stop-opacity="0.88"/><stop offset="0.1" stop-color="#97c25d" stop-opacity="0.95"/><stop offset="0.13" stop-color="#92c056" stop-opacity="0.99"/><stop offset="0.18" stop-color="#91bf54"/><stop offset="0.48" stop-color="#73a835"/><stop offset="0.69" stop-color="#75a937" stop-opacity="0.99"/><stop offset="0.77" stop-color="#7aac3f" stop-opacity="0.95"/><stop offset="0.82" stop-color="#84b34e" stop-opacity="0.88"/><stop offset="0.86" stop-color="#92bb62" stop-opacity="0.78"/><stop offset="0.9" stop-color="#a5c77c" stop-opacity="0.65"/><stop offset="0.93" stop-color="#bbd59d" stop-opacity="0.48"/><stop offset="0.97" stop-color="#d6e6c4" stop-opacity="0.29"/><stop offset="0.99" stop-color="#f4f8f0" stop-opacity="0.08"/><stop offset="1" stop-color="#fff" stop-opacity="0"/></linearGradient><linearGradient id="linear-gradient-4" x1="302.63" y1="-207.08" x2="302.63" y2="271.67" xlink:href="#linear-gradient"/><linearGradient id="linear-gradient-5" x1="143.94" y1="-169.69" x2="263.46" y2="276.37" gradientUnits="userSpaceOnUse"><stop offset="0" stop-color="#fff" stop-opacity="0"/><stop offset="0.05" stop-color="#fbd3d3" stop-opacity="0.18"/><stop offset="0.11" stop-color="#f79e9e" stop-opacity="0.39"/><stop offset="0.18" stop-color="#f37272" stop-opacity="0.57"/><stop offset="0.24" stop-color="#f14f50" stop-opacity="0.71"/><stop offset="0.3" stop-color="#ef3738" stop-opacity="0.81"/><stop offset="0.36" stop-color="#ed2829" stop-opacity="0.87"/><stop offset="0.4" stop-color="#ed2324" stop-opacity="0.89"/><stop offset="0.41" stop-color="#ed2224" stop-opacity="0.9"/><stop offset="0.46" stop-color="#ec1f24" stop-opacity="0.96"/><stop offset="0.52" stop-color="#ec1e24" stop-opacity="0.99"/><stop offset="0.64" stop-color="#ec1d24"/><stop offset="0.82" stop-color="#f36e46"/><stop offset="0.89" stop-color="#f36f47" stop-opacity="0.99"/><stop offset="0.91" stop-color="#f3734d" stop-opacity="0.96"/><stop offset="0.93" stop-color="#f47a56" stop-opacity="0.92"/><stop offset="0.94" stop-color="#f58462" stop-opacity="0.85"/><stop offset="0.96" stop-color="#f69173" stop-opacity="0.76"/><stop offset="0.97" stop-color="#f7a288" stop-opacity="0.64"/><stop offset="0.98" stop-color="#f9b5a1" stop-opacity="0.51"/><stop offset="0.98" stop-color="#fbccbd" stop-opacity="0.35"/><stop offset="0.99" stop-color="#fde4dd" stop-opacity="0.19"/><stop offset="1" stop-color="#fff" stop-opacity="0"/></linearGradient><linearGradient id="linear-gradient-6" x1="240.01" y1="-207.08" x2="240.01" y2="271.67" gradientUnits="userSpaceOnUse"><stop offset="0" stop-color="#fff" stop-opacity="0"/><stop offset="0.01" stop-color="#fff5dd" stop-opacity="0.15"/><stop offset="0.03" stop-color="#fee9b2" stop-opacity="0.32"/><stop offset="0.05" stop-color="#fede8c" stop-opacity="0.48"/><stop offset="0.08" stop-color="#fed46b" stop-opacity="0.62"/><stop offset="0.1" stop-color="#fecc4f" stop-opacity="0.74"/><stop offset="0.13" stop-color="#fdc539" stop-opacity="0.84"/><stop offset="0.16" stop-color="#fdc027" stop-opacity="0.91"/><stop offset="0.2" stop-color="#fdbd1b" stop-opacity="0.96"/><stop offset="0.24" stop-color="#fdbb14" stop-opacity="0.99"/><stop offset="0.34" stop-color="#fdba12"/><stop offset="0.77" stop-color="#ffd563"/><stop offset="0.86" stop-color="#ffd564" stop-opacity="0.99"/><stop offset="0.89" stop-color="#ffd668" stop-opacity="0.97"/><stop offset="0.91" stop-color="#ffd870" stop-opacity="0.92"/><stop offset="0.93" stop-color="#ffdb7a" stop-opacity="0.85"/><stop offset="0.94" stop-color="#ffdf87" stop-opacity="0.77"/><stop offset="0.95" stop-color="#ffe398" stop-opacity="0.66"/><stop offset="0.97" stop-color="#ffe9ac" stop-opacity="0.53"/><stop offset="0.98" stop-color="#ffefc3" stop-opacity="0.38"/><stop offset="0.99" stop-color="#fff6dd" stop-opacity="0.22"/><stop offset="1" stop-color="#fffdf9" stop-opacity="0.04"/><stop offset="1" stop-color="#fff" stop-opacity="0"/></linearGradient><linearGradient id="linear-gradient-7" x1="167.04" y1="-175.88" x2="286.56" y2="270.18" gradientUnits="userSpaceOnUse"><stop offset="0" stop-color="#fff" stop-opacity="0"/><stop offset="0.02" stop-color="#fbd3d3" stop-opacity="0.18"/><stop offset="0.05" stop-color="#f79e9e" stop-opacity="0.39"/><stop offset="0.08" stop-color="#f37272" stop-opacity="0.57"/><stop offset="0.11" stop-color="#f14f50" stop-opacity="0.71"/><stop offset="0.14" stop-color="#ef3738" stop-opacity="0.81"/><stop offset="0.17" stop-color="#ed2829" stop-opacity="0.87"/><stop offset="0.19" stop-color="#ed2324" stop-opacity="0.89"/><stop offset="0.2" stop-color="#ed2224" stop-opacity="0.9"/><stop offset="0.29" stop-color="#ec1f24" stop-opacity="0.96"/><stop offset="0.4" stop-color="#ec1e24" stop-opacity="0.99"/><stop offset="0.64" stop-color="#ec1d24"/><stop offset="0.82" stop-color="#f36e46"/><stop offset="0.89" stop-color="#f36f47" stop-opacity="0.99"/><stop offset="0.91" stop-color="#f3734d" stop-opacity="0.96"/><stop offset="0.93" stop-color="#f47a56" stop-opacity="0.92"/><stop offset="0.94" stop-color="#f58462" stop-opacity="0.85"/><stop offset="0.96" stop-color="#f69173" stop-opacity="0.76"/><stop offset="0.97" stop-color="#f7a288" stop-opacity="0.64"/><stop offset="0.98" stop-color="#f9b5a1" stop-opacity="0.51"/><stop offset="0.98" stop-color="#fbccbd" stop-opacity="0.35"/><stop offset="0.99" stop-color="#fde4dd" stop-opacity="0.19"/><stop offset="1" stop-color="#fff" stop-opacity="0"/></linearGradient></defs><g id="Layer_1" data-name="Layer 1"><path class="cls-1" d="M67.07,126l-7.63,38.41c-3.51,17.75-13.55,25-29.49,25-9,0-16.55-2.14-21.95-6.09l6.34-9.69c3.61,3,9.69,5,16.21,5,9.26,0,13.46-4.12,15.09-11.92l.34-2a20.12,20.12,0,0,1-14.06,5.14c-11.4,0-20.4-7.29-20.4-19.38,0-14.14,11-25.2,25.72-25.2,6.85,0,12.77,2.4,15.6,8.23L54.3,126ZM48.9,145.44c0-5.58-3.78-9.09-10.38-9.09-7.89,0-13.54,5.57-13.54,13.46,0,5.57,3.94,9.09,10.54,9.09C43.32,158.9,48.9,153.32,48.9,145.44Z"/><path class="cls-1" d="M71.19,152.12c0-15.34,11.66-26.83,27.87-26.83,14.14,0,23.23,8.14,23.23,20.66,0,15.35-11.57,26.84-27.86,26.84C80.37,172.79,71.19,164.56,71.19,152.12Zm37.55-5.57c0-6.26-3.77-10.2-10.46-10.2-7.88,0-13.54,6.17-13.54,15.17,0,6.26,3.86,10.21,10.54,10.21C103.09,161.73,108.74,155.55,108.74,146.55Z"/><path class="cls-1" d="M181.45,146c0,15.52-11.23,26.84-25.55,26.84-7.11,0-12.52-2.49-15.43-7.55l-1.37,6.86H126.41l12.69-63.62h13.37l-4.28,21.44a20.28,20.28,0,0,1,13.28-4.63C172.19,125.29,181.45,132.83,181.45,146Zm-13.55.6c0-6.26-3.85-10.2-10.54-10.2-7.8,0-13.46,6.17-13.46,15.17,0,6.26,3.77,10.21,10.46,10.21C162.25,161.73,167.9,155.55,167.9,146.55Z"/><path class="cls-1" d="M183.17,165.07a8.6,8.6,0,0,1,8.92-8.92,7.46,7.46,0,0,1,7.8,7.72,8.73,8.73,0,0,1-8.83,8.92A7.57,7.57,0,0,1,183.17,165.07Z"/><path class="cls-2" d="M274,217.79a1.73,1.73,0,0,1,.53.17q-4.58-27.36-11.18-54Q269.51,190.59,274,217.79Z"/><path class="cls-3" d="M363.09,170.42c5.81,3.76,17.86,4.87,17.39,14.11,1,2.82,3.77-1.2,5.09-1.6,1.2-2-4-4.28-2.13-6.65,4.35-5.36,7.51-17.29,8.45-24,1-.83-4.86-10.34-4.54-11.23-.73-2-3.06-.9-4.28-2.21-.9-.86-4.9-5-5.25-6.12-3-8,4.24-13.58-1.6-14.62-1.8-.67-27.62,1.71-27.57-1.72.09-2.3-7.32-16-2.81-16.94a2.86,2.86,0,0,0,2.33-1.89c2.58-3.37-2.44-9.67-3.39-12.77-.93-1.83.18-7.17-2.18-8.17-14.76-9-14.36-.83-21.92-6.11a840.74,840.74,0,0,0-32.23,147.54c2.62-1.67,14.05-.81,15.76-.85,2.07.54,4.77,3,6-.2L323,179.09C323.61,176.42,361.29,170,363.09,170.42Z"/><path class="cls-4" d="M284.58,54.77c-6.8-2.41-14.68-13.79-19.13-19.2C262.92,30.9,269.16,10.11,262,8c-8,2.84-22.48,4.26-29.33,9.79C226.48,22,223.16,26,219.91,28.67A887,887,0,0,1,263.33,164q6.6,26.61,11.18,54c2.48,1.19,3.73,7.88,4.73,9.75,2.4,3.85,4.47.64,6.07-3Q286.87,139.67,284.58,54.77Z"/><path class="cls-5" d="M314.94,65.45c-3.78-1-26.25-13.35-30.15-10.59l-.21-.09q2.31,84.9.73,169.93c1.1-2.54,2-5.28,2.6-6a1.15,1.15,0,0,1,.54-.61A840.74,840.74,0,0,1,320.68,70.53,42.25,42.25,0,0,1,314.94,65.45Z"/><path class="cls-6" d="M314.94,65.45c-3.78-1-26.25-13.35-30.15-10.59l-.21-.09q2.31,84.9.73,169.93c1.1-2.54,2-5.28,2.6-6a1.15,1.15,0,0,1,.54-.61A840.74,840.74,0,0,1,320.68,70.53,42.25,42.25,0,0,1,314.94,65.45Z"/><path class="cls-7" d="M216.7,30.73c-3.59,1.6-8,1.17-16.37-2.79-10.73.82,15.9,24.41,8.23,31.07-.23.87-1.48,22-2,22.72-2.77,6.44-8.05,10.79-2.78,17.81-.23,8-8.25,4.79-2.38,16.51.23,1.52,3.19,1.93,4.18,2.44,6.45,3.72-11.3,15.13-9.22,19.6,2.23,4.27,8.41,18.54,9.85,26,6.06,6.39,6.31,8.79,6.83,8.79-3,14.24-5.17,10.61,2.44,26.69,1.66,1.6,6.1,34.25,10.62,32.34,1.27-.65,8.46-.41,9.34-1.92,2.05-1,14.61-18,17.54-15,4.63,5.87,14.6,3,20.61,2.8a1.48,1.48,0,0,1,.42,0Q269.54,190.6,263.33,164A778.26,778.26,0,0,0,216.7,30.73Z"/><path class="cls-8" d="M219.91,28.67a14.64,14.64,0,0,1-3.21,2.06A778.26,778.26,0,0,1,263.33,164,887,887,0,0,0,219.91,28.67Z"/><path class="cls-9" d="M219.91,28.67a14.64,14.64,0,0,1-3.21,2.06A778.26,778.26,0,0,1,263.33,164,887,887,0,0,0,219.91,28.67Z"/><path class="cls-10" d="M272.05,155.64c0,10.37-8.57,16.46-24.69,16.46H215v-60h30.7c15.77,0,23.49,6.44,23.49,15.7a14.18,14.18,0,0,1-8.06,13C267.85,143.21,272.05,148.35,272.05,155.64Zm-40.29-31.29v11.57h11.66c5.66,0,8.57-2,8.57-5.83s-2.91-5.74-8.57-5.74Zm23.15,29.4c0-4.11-3.09-6.08-8.92-6.08H231.76v12.17H246C251.82,159.84,254.91,157.87,254.91,153.75Z"/><path class="cls-10" d="M277.8,142.09c0-18,14.15-31.2,33.35-31.2s33.35,13.2,33.35,31.2-14.14,31.21-33.35,31.21S277.8,160.1,277.8,142.09Zm49.56,0c0-10.37-7.12-17.14-16.21-17.14S295,131.72,295,142.09s7.12,17.15,16.2,17.15S327.36,152.47,327.36,142.09Z"/></g></svg>